<svg width="12" height="12" viewBox="0 0 12 12" fill="none" xmlns="http://www.w3.org/2000/svg">
<g id="sort">
<path id="Icon" d="M3.14645 2.14645C3.34171 1.95118 3.65829 1.95118 3.85355 2.14645L5.85355 4.14645C6.04882 4.34171 6.04882 4.65829 5.85355 4.85355C5.65829 5.04882 5.34171 5.04882 5.14645 4.85355L4 3.70711V9.5C4 9.77614 3.77614 10 3.5 10C3.22386 10 3 9.77614 3 9.5V3.70711L1.85355 4.85355C1.65829 5.04882 1.34171 5.04882 1.14645 4.85355C0.951184 4.65829 0.951184 4.34171 1.14645 4.14645L3.14645 2.14645ZM8 8.29289V2.5C8 2.22386 8.22386 2 8.5 2C8.77614 2 9 2.22386 9 2.5V8.29289L10.1464 7.14645C10.3417 6.95118 10.6583 6.95118 10.8536 7.14645C11.0488 7.34171 11.0488 7.65829 10.8536 7.85355L8.85355 9.85355C8.75979 9.94732 8.63261 10 8.5 10C8.36739 10 8.24021 9.94732 8.14645 9.85355L6.14645 7.85355C5.95118 7.65829 5.95118 7.34171 6.14645 7.14645C6.34171 6.95118 6.65829 6.95118 6.85355 7.14645L8 8.29289Z" fill="#666666"/>
</g>
</svg>
